<svg width="88" height="24" viewBox="0 0 88 24" fill="none" xmlns="http://www.w3.org/2000/svg">
<path d="M0 4C0 1.79086 1.79086 0 4 0H51V24H4C1.79086 24 0 22.2091 0 20V4Z" fill="#197AFF"/>
<path d="M19.4268 11.9072C19.4268 13.0329 19.2171 13.974 18.7979 14.7305C18.3786 15.4824 17.7702 16.0498 16.9727 16.4326C16.1751 16.8109 15.2135 17 14.0879 17H11.3125V7.00586H14.3887C15.4232 7.00586 16.3164 7.19271 17.0684 7.56641C17.8203 7.93555 18.4014 8.4847 18.8115 9.21387C19.2217 9.93848 19.4268 10.8363 19.4268 11.9072ZM17.7178 11.9551C17.7178 11.1348 17.5879 10.4603 17.3281 9.93164C17.0729 9.40299 16.6947 9.01107 16.1934 8.75586C15.6966 8.49609 15.0837 8.36621 14.3545 8.36621H12.9531V15.626H14.1152C15.3229 15.626 16.2253 15.3184 16.8223 14.7031C17.4193 14.0879 17.7178 13.1719 17.7178 11.9551ZM30.4531 11.9893C30.4531 12.7594 30.3551 13.4613 30.1592 14.0947C29.9678 14.7236 29.6784 15.266 29.291 15.7217C28.9036 16.1729 28.4183 16.5215 27.835 16.7676C27.2516 17.0137 26.568 17.1367 25.7842 17.1367C24.9867 17.1367 24.2939 17.0137 23.7061 16.7676C23.1227 16.5215 22.6374 16.1706 22.25 15.7148C21.8672 15.2591 21.5801 14.7145 21.3887 14.0811C21.1973 13.4476 21.1016 12.7458 21.1016 11.9756C21.1016 10.9456 21.2702 10.0479 21.6074 9.28223C21.9492 8.51204 22.4665 7.91504 23.1592 7.49121C23.8564 7.06283 24.736 6.84863 25.7979 6.84863C26.8369 6.84863 27.7005 7.06055 28.3887 7.48438C29.0768 7.9082 29.5918 8.50521 29.9336 9.27539C30.2799 10.041 30.4531 10.9456 30.4531 11.9893ZM22.8242 11.9893C22.8242 12.7594 22.929 13.4271 23.1387 13.9922C23.3483 14.5527 23.6696 14.9857 24.1025 15.291C24.54 15.5918 25.1006 15.7422 25.7842 15.7422C26.4723 15.7422 27.0329 15.5918 27.4658 15.291C27.8988 14.9857 28.2178 14.5527 28.4229 13.9922C28.6279 13.4271 28.7305 12.7594 28.7305 11.9893C28.7305 10.818 28.4958 9.90202 28.0264 9.24121C27.5615 8.57585 26.8187 8.24316 25.7979 8.24316C25.1143 8.24316 24.5514 8.39355 24.1094 8.69434C23.6719 8.99512 23.3483 9.42578 23.1387 9.98633C22.929 10.5423 22.8242 11.21 22.8242 11.9893ZM36.8584 8.25684C36.3799 8.25684 35.9515 8.34342 35.5732 8.5166C35.1995 8.68978 34.8828 8.94043 34.623 9.26855C34.3633 9.59212 34.165 9.98633 34.0283 10.4512C33.8916 10.9115 33.8232 11.431 33.8232 12.0098C33.8232 12.7845 33.9326 13.4521 34.1514 14.0127C34.3701 14.5687 34.7028 14.9971 35.1494 15.2979C35.596 15.5941 36.1611 15.7422 36.8447 15.7422C37.2686 15.7422 37.681 15.7012 38.082 15.6191C38.4831 15.5371 38.8978 15.4255 39.3262 15.2842V16.6787C38.9206 16.8382 38.5104 16.9544 38.0957 17.0273C37.681 17.1003 37.2025 17.1367 36.6602 17.1367C35.6393 17.1367 34.7917 16.9248 34.1172 16.501C33.4473 16.0771 32.946 15.4801 32.6133 14.71C32.2852 13.9398 32.1211 13.0374 32.1211 12.0029C32.1211 11.2464 32.2259 10.5537 32.4355 9.9248C32.6452 9.2959 32.9505 8.75358 33.3516 8.29785C33.7526 7.83757 34.2471 7.48438 34.835 7.23828C35.4274 6.98763 36.1042 6.8623 36.8652 6.8623C37.3665 6.8623 37.8587 6.91927 38.3418 7.0332C38.8294 7.14258 39.2806 7.2998 39.6953 7.50488L39.1211 8.8584C38.7747 8.69434 38.4124 8.55306 38.0342 8.43457C37.6559 8.31608 37.264 8.25684 36.8584 8.25684Z" fill="white"/>
<path d="M51 0H84C86.2091 0 88 1.79086 88 4V20C88 22.2091 86.2091 24 84 24H51V0Z" fill="#197AFF" fill-opacity="0.3"/>
<path d="M69.7227 7.00586L66.2295 17H64.4932L61 7.00586H62.6816L64.7871 13.2676C64.8509 13.4499 64.9193 13.6709 64.9922 13.9307C65.0697 14.1904 65.1403 14.4525 65.2041 14.7168C65.2725 14.9811 65.3249 15.2158 65.3613 15.4209C65.3978 15.2158 65.4479 14.9811 65.5117 14.7168C65.5801 14.4525 65.6507 14.1904 65.7236 13.9307C65.7965 13.6709 65.8649 13.4476 65.9287 13.2607L68.041 7.00586H69.7227ZM75.0752 17H73.4619V10.5674C73.4619 10.3532 73.4642 10.139 73.4688 9.9248C73.4733 9.71061 73.4779 9.50098 73.4824 9.2959C73.4915 9.09082 73.5029 8.89486 73.5166 8.70801C73.4209 8.81283 73.3024 8.92676 73.1611 9.0498C73.0244 9.17285 72.8786 9.30046 72.7236 9.43262L71.5752 10.3486L70.7686 9.33008L73.7354 7.00586H75.0752V17Z" fill="white"/>
</svg>
