<svg width="128" height="20" viewBox="0 0 128 20" fill="none" xmlns="http://www.w3.org/2000/svg">
<path fill-rule="evenodd" clip-rule="evenodd" d="M5.01562 2.0166C3.35877 2.0166 2.01562 3.35975 2.01562 5.0166V15.001C2.01562 16.6578 3.35877 18.001 5.01562 18.001H15C16.6569 18.001 18 16.6578 18 15.001V5.0166C18 3.35975 16.6569 2.0166 15 2.0166H5.01562ZM16.3891 5.20021C16.3891 5.6416 16.0313 5.99943 15.5899 5.99943C15.1485 5.99943 14.7906 5.6416 14.7906 5.20021C14.7906 4.75881 15.1485 4.40099 15.5899 4.40099C16.0313 4.40099 16.3891 4.75881 16.3891 5.20021ZM10.0113 13.5982C11.9976 13.5982 13.6078 11.988 13.6078 10.0018C13.6078 8.01548 11.9976 6.40528 10.0113 6.40528C8.02504 6.40528 6.41484 8.01548 6.41484 10.0018C6.41484 11.988 8.02504 13.5982 10.0113 13.5982ZM10.0113 14.7971C12.6597 14.7971 14.8066 12.6501 14.8066 10.0018C14.8066 7.35339 12.6597 5.20645 10.0113 5.20645C7.36295 5.20645 5.21601 7.35339 5.21601 10.0018C5.21601 12.6501 7.36295 14.7971 10.0113 14.7971Z" fill="#2C3E50"/>
<path d="M51.6562 2H40.3438C39.0515 2 38 3.05151 38 4.34375V15.6562C38 16.9485 39.0515 18 40.3438 18H45.0625V12.3438H43.1875V9.53125H45.0625V7.625C45.0625 6.0741 46.3241 4.8125 47.875 4.8125H50.7188V7.625H47.875V9.53125H50.7188L50.25 12.3438H47.875V18H51.6562C52.9485 18 54 16.9485 54 15.6562V4.34375C54 3.05151 52.9485 2 51.6562 2Z" fill="#2C3E50"/>
<path fill-rule="evenodd" clip-rule="evenodd" d="M76 2C74.8954 2 74 2.89543 74 4V16C74 17.1046 74.8954 18 76 18H88C89.1046 18 90 17.1046 90 16V4C90 2.89543 89.1046 2 88 2H76ZM87.7528 6.98132C87.6144 6.46732 87.2092 6.06205 86.6952 5.92367C85.7561 5.66667 82 5.66667 82 5.66667C82 5.66667 78.2438 5.66667 77.3048 5.91378C76.8007 6.05217 76.3855 6.46732 76.2471 6.98132C76 7.92036 76 9.86764 76 9.86764C76 9.86764 76 11.8248 76.2471 12.754C76.3855 13.268 76.7908 13.6732 77.3048 13.8116C78.2537 14.0686 82 14.0686 82 14.0686C82 14.0686 85.7561 14.0686 86.6952 13.8215C87.2092 13.6831 87.6144 13.2778 87.7528 12.7638C87.9999 11.8248 87.9999 9.87752 87.9999 9.87752C87.9999 9.87752 88.0098 7.92036 87.7528 6.98132ZM80.8039 11.598L83.9275 9.799L80.8039 8V11.598Z" fill="#2C3E50"/>
<g clip-path="url(#clip0_235_20982)">
<path fill-rule="evenodd" clip-rule="evenodd" d="M112 2C110.895 2 110 2.89543 110 4V16C110 17.1046 110.895 18 112 18H124C125.105 18 126 17.1046 126 16V4C126 2.89543 125.105 2 124 2H112ZM118.271 11.8945C118.271 12.8688 117.55 13.506 116.66 13.506C115.77 13.506 115.048 12.7845 115.048 11.8945C115.048 11.0988 115.789 10.371 116.687 10.404C116.863 10.404 117.07 10.446 117.15 10.4744V8.62331C115.556 8.30091 113.149 9.62001 113.149 11.8945C113.149 13.506 114.389 15.3333 116.66 15.3333C118.931 15.3333 120.198 13.506 120.198 11.8945V8.23373C120.564 8.52374 121.615 9.04631 122.851 9.04631V7.229C121.406 7.25812 120.096 5.98482 120.204 4.66667H118.271V11.8945Z" fill="#2C3E50"/>
</g>
<defs>
<clipPath id="clip0_235_20982">
<rect width="16" height="16" fill="white" transform="translate(110 2)"/>
</clipPath>
</defs>
</svg>
