<svg width="90" height="26" viewBox="0 0 90 26" fill="none" xmlns="http://www.w3.org/2000/svg">
<path d="M34.1172 20.7028V5.53613H39.7101C45.3172 5.53613 48.12 8.00108 48.1185 12.931C48.1185 15.2926 47.3536 17.1791 45.8237 18.5903C44.2938 20.0015 42.2559 20.7064 39.7101 20.705L34.1172 20.7028ZM37.6744 8.31597V17.9316H39.435C40.974 17.9316 42.183 17.4875 43.0622 16.5991C43.9413 15.7108 44.3794 14.5011 44.3764 12.97C44.3764 11.5255 43.9421 10.388 43.0735 9.55747C42.2048 8.72691 40.9845 8.31308 39.4125 8.31597H37.6744Z" fill="#2C3E50"/>
<path d="M64.2478 20.7028H60.3817L59.2545 17.3293H53.6526L52.5255 20.7028H48.6797L54.4258 5.53613H58.6414L64.2478 20.7028ZM58.434 14.7055L56.7387 9.60514C56.602 9.16087 56.5136 8.70413 56.475 8.2423H56.3871C56.3495 8.69167 56.2572 9.13527 56.1121 9.56397L54.3943 14.7055H58.434Z" fill="#2C3E50"/>
<path d="M75.6902 8.31521H71.1817V20.702H67.6267V8.31521H63.1406V5.5332H75.6902V8.31521Z" fill="#2C3E50"/>
<path d="M90.0006 20.7028H86.1277L85.0006 17.3293H79.3897L78.2783 20.7028H74.4258L80.1719 5.53613H84.3874L90.0006 20.7028ZM84.1891 14.7055L82.4938 9.60514C82.3571 9.16087 82.2687 8.70413 82.2301 8.2423H82.1422C82.1046 8.69167 82.0123 9.13527 81.8671 9.56397L80.1494 14.7055H84.1891Z" fill="#2C3E50"/>
<path d="M13.3112 8.26172H13.2233C13.1857 8.71109 13.0934 9.15467 12.9482 9.58338L11.2305 14.7335H15.2701L13.5749 9.63538C13.4378 9.1875 13.3494 8.72715 13.3112 8.26172Z" fill="#2C3E50"/>
<path d="M24.3463 0H2.70514C1.98769 0 1.29963 0.273926 0.792318 0.76152C0.285006 1.24911 0 1.91044 0 2.6V23.4C0 24.0896 0.285006 24.7509 0.792318 25.2385C1.29963 25.7261 1.98769 26 2.70514 26H24.3463C25.0637 26 25.7518 25.7261 26.2591 25.2385C26.7664 24.7509 27.0514 24.0896 27.0514 23.4V2.6C27.0514 1.91044 26.7664 1.24911 26.2591 0.76152C25.7518 0.273926 25.0637 0 24.3463 0ZM17.2069 20.7242L16.0798 17.3485H10.4666L9.35528 20.7242H5.50721L11.2534 5.55751H15.4689L21.0821 20.7242H17.2069Z" fill="#2C3E50"/>
</svg>
